<svg xmlns="http://www.w3.org/2000/svg" width="61" height="61" viewBox="0 0 61 61"><defs><clipPath id="r8e8a"><path d="M0 61h61V0H0z"/></clipPath></defs><g><g><g><path fill="#5992cd" d="M0 61h61V0H0z"/></g><g><path fill="#fefefe" d="M9 48h2V29H9z"/></g><g><path fill="#fefefe" d="M4.483 34L3 32.497 23.22 12l10.26 10.4h1.476v-5.851h6.693v5.764H49v2.125h-9.448v-5.764h-2.5v5.85h-4.44l-9.391-9.518z"/></g><g><g><path fill="#fefefe" d="M50.38 25.925l.02.02.52.26.156-.313-.466-.233a.525.525 0 0 1 .74-.74l.233.466.312-.156-.26-.52-.02-.02a.871.871 0 0 0-1.154-.065c-.344-.301-.922-1.48-.922-1.91 0-.205.072-.432.208-.676a.876.876 0 0 1-.252-.268c-.163.27-.305.602-.305.943 0 .689.778 1.827 1.054 2.16a.872.872 0 0 0 .137 1.052"/></g><g><path fill="#fefefe" d="M49.138 23.77H46.92v.349h2.399a5.848 5.848 0 0 1-.181-.349"/></g><g><path fill="#fefefe" d="M57.742 23.763v.35h-7.258c-.065-.1-.136-.221-.204-.35h.45l-.301-1.812a1.513 1.513 0 0 1 .203-1.035l.078-.117.135-.179h2.968l.136.181.006.009a1.513 1.513 0 0 1 .274 1.14l-.302 1.813zm-6.635-.349h.349v-.35h-.35zm.698 0h.34v-.35h-.34zm.699 0h.349v-.35h-.35zm.698 0h.35v-.35h-.35zm-2.27-1.222c0 .193.157.349.35.349h2.104a.35.35 0 0 0 .35-.35v-.698a.35.35 0 0 0-.35-.35h-2.103a.35.35 0 0 0-.351.35z"/></g><g><path fill="#fefefe" d="M50.064 21.817c-.002-.036-.005-.072-.005-.108 0-.315.084-.627.236-.901-.02-.003-.04-.008-.061-.008a.523.523 0 1 0-.17 1.017"/></g><g><path fill="#fefefe" d="M50.055 19.228h.174V18.18h-.174a.175.175 0 0 0-.175.175v.698c0 .096.078.175.175.175"/></g><g><path fill="#fefefe" d="M54.77 19.053v-.698a.175.175 0 0 0-.175-.175h-.175v1.048h.175a.175.175 0 0 0 .174-.175"/></g><g><path fill="#fefefe" d="M54.59 21.819a.524.524 0 0 0-.17-1.019c-.02 0-.04.005-.06.008.152.274.235.586.235.9 0 .037-.002.074-.004.11"/></g><g><path fill="#fefefe" d="M51.104 20.273a.524.524 0 0 1-.524-.524v-2.095c0-.289.235-.524.524-.524h.262l.524.699h.873l.524-.699h.262c.289 0 .523.235.523.524v2.095a.524.524 0 0 1-.523.524zm2.098-2.27a.347.347 0 0 0-.345.35c0 .192.154.349.345.349.19 0 .345-.157.345-.35a.347.347 0 0 0-.345-.349zm-1.575 1.562v-.34h-.346v.34a.35.35 0 0 0 .351.35h1.378a.35.35 0 0 0 .352-.35v-.34h-.347l-.005.345zm-.176-1.562a.347.347 0 0 0-.346.35c0 .192.155.349.346.349.19 0 .345-.157.345-.35a.347.347 0 0 0-.345-.349z"/></g><g><path fill="#fefefe" d="M52.596 17.48l.262-.35H51.81l.262.35z"/></g><g/><g clip-path="url(#r8e8a)"><path fill="#fefefe" d="M52.075 24.81h3.402v2.445H49.19V24.81h.524v1.397h.462l.935.397v.301h.35v-.349h-.326l.175-.349h.15v-.35l.904-.47zm-2.362 2.094h.359v-.34h-.359zm.698 0h.358v-.34h-.358zm1.394 0h.359v-.34h-.359zm0-.701h.359v-.34h-.359zm2.79-.702h.359v-.34h-.36zm0 .702h.359v-.34h-.36zm0 .701h.359v-.34h-.36zm-.697-1.403h.348v-.34h-.349zm0 .702h.348v-.34h-.349zm0 .701h.348v-.34h-.349zm-.698-1.403h.359v-.34H53.2zm0 .702h.359v-.34H53.2zm0 .701h.359v-.34H53.2zm-.697-1.403h.358v-.34h-.358zm0 .702h.358v-.34h-.358zm0 .701h.358v-.34h-.358z"/></g><g clip-path="url(#r8e8a)"><path fill="#fefefe" d="M55.28 21.14a.88.88 0 0 1 .003.35 1.574 1.574 0 0 0 1.414-1.564v-.541a.875.875 0 0 0 .698-.856v-.028l-.183-.551-.331.11.165.495a.525.525 0 0 1-1.047 0l.165-.495-.331-.11-.184.55v.029c0 .422.3.774.699.856v.56c0 .618-.468 1.128-1.068 1.195"/></g><g clip-path="url(#r8e8a)"><path fill="#fefefe" d="M20.201 37.648l.276-1.64H18.94l.287-1.72h1.513l.207-1.308h-1.514l.264-1.72h1.537l.24-1.64h1.87l-.253 1.64h1.159l.252-1.64h1.87l-.253 1.64h1.514l-.287 1.72h-1.502l-.218 1.308h1.525l-.286 1.72h-1.503l-.264 1.64H23.23l.264-1.64h-1.158l-.264 1.64zm2.402-3.36h1.142l.215-1.308h-1.142z"/></g><g clip-path="url(#r8e8a)"><path fill="#fefefe" d="M27.85 39.127v-3.6h.814c.516-.93.78-2.386.78-4.347v-1.56h6.25v5.906h1.01v3.601h-2.317v-1.48h-4.232v1.48zm5.386-3.59v-3.795h-1.474c0 .632-.057 1.31-.16 2.058-.103.736-.251 1.31-.457 1.736z"/></g><g clip-path="url(#r8e8a)"><path fill="#fefefe" d="M38.526 30.687c.814-.814 1.846-1.227 3.085-1.227 1.238 0 2.259.413 3.073 1.227.814.814 1.216 1.79 1.216 2.947 0 1.159-.402 2.145-1.216 2.96-.814.814-1.835 1.215-3.073 1.215-1.239 0-2.271-.413-3.085-1.227-.815-.814-1.216-1.8-1.216-2.948 0-1.158.401-2.133 1.216-2.947m3.085 4.874c.516 0 .94-.183 1.273-.539.332-.367.504-.826.504-1.388 0-.561-.172-1.02-.504-1.376-.333-.367-.757-.55-1.273-.55-.516 0-.94.183-1.273.55-.333.356-.505.815-.505 1.376 0 .562.172 1.021.505 1.388.332.356.756.54 1.273.54"/></g><g clip-path="url(#r8e8a)"><path fill="#fefefe" d="M46.9 37.648V29.62h2.443l1.754 2.856 1.766-2.856h2.432v8.028h-2.363v-4.496l-1.135 1.915h-1.33l-1.182-1.915v4.496z"/></g><g clip-path="url(#r8e8a)"><path fill="#fefefe" d="M12.94 41.2c.676-.677 1.533-1.02 2.562-1.02 1.028 0 1.876.343 2.552 1.02.677.675 1.01 1.485 1.01 2.447s-.333 1.781-1.01 2.457c-.676.677-1.524 1.01-2.552 1.01-1.029 0-1.886-.343-2.562-1.02a3.336 3.336 0 0 1-1.01-2.447c0-.962.333-1.772 1.01-2.448m2.562 4.045c.428 0 .78-.152 1.057-.446.276-.305.42-.685.42-1.151 0-.466-.144-.846-.42-1.141a1.365 1.365 0 0 0-1.057-.456c-.429 0-.781.152-1.057.456-.277.295-.42.675-.42 1.141 0 .466.143.846.42 1.15a1.39 1.39 0 0 0 1.057.447"/></g><g clip-path="url(#r8e8a)"><path fill="#fefefe" d="M19.89 46.987V40.32h2.048v2.257h2.038V40.32h2.048v6.667h-2.048v-2.629h-2.038v2.63z"/></g><g clip-path="url(#r8e8a)"><path fill="#fefefe" d="M26.53 45.082c.19.086.343.124.467.124.238 0 .41-.047.524-.143.228-.2.41-.924.419-2.514l.028-2.229h5.258v6.667h-2.038v-4.905h-1.362l-.01.8c-.01 1.629-.248 2.743-.676 3.353-.42.61-.943.838-1.677.838-.428 0-.742-.057-.933-.181z"/></g><g clip-path="url(#r8e8a)"><path fill="#fefefe" d="M33.74 46.985l2.743-6.705h1.953l2.752 6.705h-2.2l-.476-1.247H36.34l-.486 1.247zm3.19-2.777h.982l-.486-1.588z"/></g><g clip-path="url(#r8e8a)"><path fill="#fefefe" d="M41.69 46.985v-6.67h1.981v3.316l2.572-3.315h1.686v6.67h-1.962v-3.288l-2.534 3.287zm1.276-8.715h1.292c.01.345.2.517.551.517.352 0 .532-.172.542-.517h1.31c-.009.536-.18.957-.531 1.273-.352.306-.789.459-1.311.459-.523 0-.96-.153-1.311-.46-.352-.315-.532-.736-.542-1.272z"/></g><g clip-path="url(#r8e8a)"><path fill="#fefefe" d="M48.94 46.987V40.32h2.048v2.257h2.038V40.32h2.048v6.667h-2.048v-2.629h-2.038v2.63z"/></g></g></g></g></svg>